<svg width="23" height="75" viewBox="0 0 23 75" fill="none" xmlns="http://www.w3.org/2000/svg">
<g filter="url(#filter0_i)">
<rect width="23" height="75" rx="11.5" fill="white"/>
</g>
<path d="M14.1381 64.6035V65.1586C14.1381 65.6004 13.8178 65.9679 13.4009 66.0305L13.2659 66.5348C13.1925 66.8084 12.9494 67 12.6677 67H11.3285C11.0467 67 10.8036 66.8084 10.7303 66.5348L10.5991 66.0305C10.1784 65.964 9.85806 65.6004 9.85806 65.1547V64.5996C9.85806 64.3025 10.0935 64.064 10.3868 64.064H13.6093C13.9027 64.0679 14.1381 64.3064 14.1381 64.6035ZM16.6196 57.1208C16.6196 58.3835 16.1256 59.529 15.3229 60.3695C14.7131 61.0107 14.3195 61.8278 14.1883 62.6996C14.1304 63.0749 13.81 63.3525 13.4318 63.3525H10.5643C10.19 63.3525 9.86578 63.0788 9.81175 62.7035C9.67667 61.8317 9.27916 61.0029 8.66938 60.3656C7.88207 59.5368 7.39194 58.4109 7.38036 57.1716C7.35334 54.5679 9.3988 52.4607 11.9691 52.4412C14.5356 52.4216 16.6196 54.5249 16.6196 57.1208ZM12.521 54.2864C12.521 53.9971 12.2895 53.7586 12 53.7586C10.1629 53.7586 8.66552 55.2716 8.66552 57.1364C8.66552 57.4257 8.89708 57.6642 9.18653 57.6642C9.47213 57.6642 9.70755 57.4296 9.70755 57.1364C9.70755 55.8541 10.738 54.8142 12 54.8142C12.2895 54.8142 12.521 54.5796 12.521 54.2864ZM12 50.9047C12.2856 50.9047 12.521 50.6702 12.521 50.377V48.5278C12.521 48.2385 12.2895 48 12 48C11.7105 48 11.479 48.2346 11.479 48.5278V50.377C11.479 50.6702 11.7144 50.9047 12 50.9047ZM5.8675 57.1169C5.8675 56.8276 5.63593 56.5891 5.34648 56.5891H3.52101C3.23542 56.5891 3 56.8237 3 57.1169C3 57.4062 3.23156 57.6446 3.52101 57.6446H5.34648C5.63593 57.6446 5.8675 57.4101 5.8675 57.1169ZM20.479 56.5891H18.6535C18.3679 56.5891 18.1325 56.8237 18.1325 57.1169C18.1325 57.4062 18.3641 57.6446 18.6535 57.6446H20.479C20.7646 57.6446 21 57.4101 21 57.1169C21 56.8276 20.7684 56.5891 20.479 56.5891ZM6.92882 61.5111L5.63593 62.8208C5.43139 63.028 5.43139 63.3603 5.63593 63.5675C5.73628 63.6691 5.87135 63.72 6.00257 63.72C6.13379 63.72 6.26887 63.6691 6.36921 63.5675L7.66209 62.2578C7.86664 62.0506 7.86664 61.7183 7.66209 61.5111C7.46141 61.3039 7.1295 61.3039 6.92882 61.5111ZM16.7045 52.879C16.8358 52.879 16.9708 52.8282 17.0712 52.7265L18.3641 51.4169C18.5686 51.2097 18.5686 50.8774 18.3641 50.6702C18.1595 50.463 17.8315 50.463 17.6269 50.6702L16.334 51.9798C16.1295 52.187 16.1295 52.5193 16.334 52.7265C16.4382 52.8282 16.5695 52.879 16.7045 52.879ZM6.92882 52.7226C7.02916 52.8243 7.16424 52.8751 7.29545 52.8751C7.42667 52.8751 7.56175 52.8243 7.66209 52.7226C7.86664 52.5154 7.86664 52.1831 7.66209 51.9759L6.36921 50.6663C6.16467 50.4591 5.83662 50.4591 5.63208 50.6663C5.42753 50.8735 5.42753 51.2058 5.63208 51.413L6.92882 52.7226ZM17.0712 61.5111C16.8666 61.3039 16.5386 61.3039 16.334 61.5111C16.1295 61.7183 16.1295 62.0506 16.334 62.2578L17.6269 63.5675C17.7273 63.6691 17.8623 63.72 17.9936 63.72C18.1248 63.72 18.2599 63.6691 18.3602 63.5675C18.5647 63.3603 18.5647 63.028 18.3602 62.8208L17.0712 61.5111Z" fill="#1A2429" fill-opacity="0.33"/>
<path d="M13.8457 22.1625V22.7176C13.8457 23.1594 13.5213 23.5269 13.099 23.5894L12.9622 24.0938C12.8879 24.3674 12.6416 24.559 12.3562 24.559H10.9997C10.7143 24.559 10.468 24.3674 10.3937 24.0938L10.2608 23.5894C9.83463 23.523 9.51014 23.1594 9.51014 22.7137V22.1586C9.51014 21.8615 9.74862 21.623 10.0457 21.623H13.3101C13.6073 21.6269 13.8457 21.8654 13.8457 22.1625ZM16.3595 14.6798C16.3595 15.9425 15.8591 17.088 15.0459 17.9285C14.4283 18.5697 14.0295 19.3868 13.8966 20.2586C13.8379 20.6339 13.5134 20.9115 13.1303 20.9115H10.2256C9.84636 20.9115 9.51796 20.6378 9.46323 20.2625C9.3264 19.3907 8.92372 18.5619 8.30603 17.9246C7.5085 17.0958 7.012 15.9699 7.00027 14.7306C6.9729 12.1269 9.04492 10.0197 11.6486 10.0001C14.2484 9.98059 16.3595 12.0839 16.3595 14.6798ZM12.2077 11.8454C12.2077 11.5561 11.9731 11.3176 11.6799 11.3176C9.81899 11.3176 8.30212 12.8306 8.30212 14.6954C8.30212 14.9847 8.53669 15.2232 8.8299 15.2232C9.1192 15.2232 9.35768 14.9886 9.35768 14.6954C9.35768 13.4131 10.4015 12.3732 11.6799 12.3732C11.9731 12.3732 12.2077 12.1386 12.2077 11.8454Z" fill="#2E3045" fill-opacity="0.49"/>
<defs>
<filter id="filter0_i" x="0" y="0" width="23" height="75" filterUnits="userSpaceOnUse" color-interpolation-filters="sRGB">
<feFlood flood-opacity="0" result="BackgroundImageFix"/>
<feBlend mode="normal" in="SourceGraphic" in2="BackgroundImageFix" result="shape"/>
<feColorMatrix in="SourceAlpha" type="matrix" values="0 0 0 0 0 0 0 0 0 0 0 0 0 0 0 0 0 0 127 0" result="hardAlpha"/>
<feOffset/>
<feGaussianBlur stdDeviation="2"/>
<feComposite in2="hardAlpha" operator="arithmetic" k2="-1" k3="1"/>
<feColorMatrix type="matrix" values="0 0 0 0 0 0 0 0 0 0 0 0 0 0 0 0 0 0 0.25 0"/>
<feBlend mode="normal" in2="shape" result="effect1_innerShadow"/>
</filter>
</defs>
</svg>
